<?xml version="1.0" standalone="no"?>
<!DOCTYPE svg PUBLIC "-//W3C//DTD SVG 20010904//EN"
 "http://www.w3.org/TR/2001/REC-SVG-20010904/DTD/svg10.dtd">
<svg version="1.0" xmlns="http://www.w3.org/2000/svg"
 width="302.000000pt" height="302.000000pt" viewBox="0 0 302.000000 302.000000"
 preserveAspectRatio="xMidYMid meet">
<metadata>
Created by potrace 1.14, written by Peter Selinger 2001-2017
</metadata>
<g transform="translate(0.000000,302.000000) scale(0.100000,-0.100000)"
fill="#000000" stroke="none">
<path d="M1330 2923 c-166 -16 -205 -25 -284 -65 -182 -91 -293 -205 -370
-381 -69 -157 -86 -296 -86 -702 0 -292 7 -389 41 -540 48 -214 100 -283 279
-373 58 -29 116 -61 129 -71 l24 -19 -12 -218 c-7 -121 -16 -266 -21 -323 -5
-57 -6 -109 -3 -116 5 -15 40 -24 218 -56 109 -20 140 -21 360 -16 195 5 256
10 328 27 48 11 94 23 102 27 20 7 19 42 -5 197 -11 71 -20 167 -20 213 0 72
4 92 28 141 16 31 37 83 46 114 16 52 22 60 69 86 65 37 188 165 222 232 64
127 100 417 100 815 0 276 -9 367 -49 500 -8 28 -23 76 -32 109 -31 105 -122
191 -293 276 -236 119 -510 169 -771 143z m567 -535 c36 -41 44 -67 58 -200
13 -119 17 -136 48 -187 24 -40 47 -63 78 -78 75 -40 151 -22 81 18 -17 9 -40
39 -55 70 -22 43 -27 67 -27 123 l1 71 19 -49 c11 -27 37 -68 59 -90 54 -57
62 -76 71 -172 8 -93 19 -113 81 -145 20 -10 39 -24 42 -32 3 -7 -14 -54 -38
-103 -33 -68 -59 -105 -112 -158 -77 -77 -104 -93 -223 -131 -98 -31 -174 -29
-218 5 -34 27 -101 27 -135 -1 l-27 -20 -22 20 c-28 27 -64 26 -108 -1 -49
-30 -236 -38 -330 -14 -170 43 -299 149 -380 311 -16 33 -33 74 -36 91 l-6 31
58 1 c78 1 94 19 94 110 0 54 4 71 26 99 14 18 43 42 64 53 75 38 105 100 116
240 3 47 12 100 20 118 l13 32 58 -7 c67 -9 179 -8 448 5 105 5 206 10 226 10
25 2 41 -4 56 -20z m-322 -1108 l39 -40 -12 -154 c-13 -157 -36 -271 -71 -351
-19 -42 -115 -155 -132 -155 -4 0 -3 16 2 36 8 26 6 57 -7 121 -20 101 -15
211 17 355 23 104 49 172 81 205 29 31 38 29 83 -17z m175 12 c28 -24 35 -42
61 -162 23 -106 31 -168 35 -290 2 -85 6 -176 8 -202 4 -60 -12 -63 -61 -11
-45 49 -87 132 -114 225 -11 40 -27 96 -35 123 -11 41 -12 68 -3 148 9 77 8
104 -2 129 -12 28 -11 32 10 49 32 26 66 24 101 -9z m307 -265 c7 -258 0 -296
-74 -383 -88 -104 -96 -93 -99 141 -2 134 -8 199 -28 305 -14 74 -28 145 -32
158 -6 21 -4 22 57 23 35 0 82 6 104 13 l40 12 14 -35 c9 -24 15 -102 18 -234z
m-883 241 c57 -9 78 -18 107 -44 20 -17 53 -38 73 -45 22 -8 35 -18 32 -26 -3
-7 -12 -50 -20 -95 -20 -107 -24 -255 -9 -342 15 -84 1 -139 -35 -144 -34 -5
-103 40 -143 95 -74 100 -79 111 -99 215 -11 57 -31 144 -45 193 -34 122 -33
150 7 186 17 17 38 27 46 24 8 -3 46 -10 86 -17z m241 -30 c-9 -22 -19 -32
-31 -30 -21 4 -84 45 -84 55 0 4 29 7 65 7 l64 0 -14 -32z m285 -538 c39 -77
81 -124 134 -149 50 -25 84 -27 112 -6 21 14 21 13 28 -77 4 -51 16 -143 27
-206 10 -63 19 -120 19 -127 0 -33 -371 -72 -580 -61 -111 7 -326 37 -364 52
-17 6 -18 15 -12 93 19 242 25 353 26 421 1 74 1 75 18 50 61 -90 167 -170
225 -170 61 0 144 61 205 151 31 47 44 79 72 188 l12 44 24 -72 c13 -40 38
-99 54 -131z"/>
<path d="M1743 1969 c-18 -11 -33 -30 -33 -40 0 -25 15 -24 40 1 12 12 33 20
53 20 21 0 41 -8 52 -20 23 -25 35 -26 35 -2 0 52 -93 78 -147 41z"/>
<path d="M1246 1959 c-27 -21 -36 -59 -13 -59 7 0 18 9 25 20 15 24 73 27 92
5 17 -21 30 -19 30 4 0 48 -87 67 -134 30z"/>
</g>
</svg>
